<?xml version="1.0" encoding="UTF-8"?>
<svg width="364px" height="228px" viewBox="0 0 364 228" version="1.1" xmlns="http://www.w3.org/2000/svg" xmlns:xlink="http://www.w3.org/1999/xlink">
    <!-- Generator: Sketch 51.3 (57544) - http://www.bohemiancoding.com/sketch -->
    <title>landing_publish_success_icon</title>
    <desc>Created with Sketch.</desc>
    <defs>
        <polygon id="path-1" points="0.9193 0.3422 166.8173 0.3422 166.8173 148.315 0.9193 148.315"></polygon>
        <polygon id="path-3" points="0 0 179 0 179 153.315 0 153.315"></polygon>
        <polygon id="path-5" points="0 228.315 365 228.315 365 0 0 0"></polygon>
        <path d="M0.15,0.73 C0.049,0.841 0.041,1.008 0.131,1.129 L11.057,14.714 C11.119,14.792 11.14,14.894 11.115,14.989 C11.089,15.085 11.02,15.162 10.929,15.2 L7.196,16.715 C7.1,16.771 7.04,16.874 7.04,16.986 C7.04,17.098 7.1,17.201 7.196,17.257 L28.777,31.357 C28.906,31.435 29.072,31.411 29.173,31.299 C29.274,31.188 29.282,31.02 29.192,30.9 L18.151,17.185 C18.091,17.116 18.064,17.024 18.078,16.933 C18.092,16.843 18.144,16.762 18.222,16.715 L21.883,15 C21.973,14.949 22.031,14.856 22.04,14.754 C22.048,14.651 22.006,14.551 21.926,14.486 L0.546,0.671 C0.495,0.641 0.439,0.626 0.383,0.626 C0.297,0.626 0.211,0.661 0.15,0.73 Z" id="path-7"></path>
        <path d="M25.72,0.228 L1.022,7.829 C0.892,7.885 0.816,8.021 0.836,8.161 C0.856,8.301 0.967,8.41 1.108,8.428 L18.728,8.715 C18.822,8.716 18.911,8.76 18.97,8.835 C19.028,8.911 19.05,9.008 19.027,9.1 L18.012,13.014 C17.987,13.124 18.022,13.24 18.105,13.316 C18.187,13.393 18.305,13.42 18.413,13.385 L42.725,5.786 C42.855,5.729 42.931,5.593 42.911,5.453 C42.892,5.313 42.78,5.204 42.64,5.186 L25.191,4.9 C25.096,4.895 25.008,4.846 24.952,4.769 C24.896,4.691 24.879,4.592 24.905,4.5 L26.107,0.615 C26.136,0.506 26.106,0.39 26.026,0.309 C25.965,0.25 25.885,0.218 25.802,0.218 C25.775,0.218 25.747,0.221 25.72,0.228 Z" id="path-9"></path>
        <path d="M0.665,0.265 C0.633,0.371 0.694,0.483 0.801,0.514 L10.926,5.629 C10.975,5.666 11.003,5.725 11.003,5.786 C11.003,5.847 10.975,5.905 10.926,5.943 L9.125,7.871 C9.068,7.924 9.048,8.005 9.073,8.079 C9.098,8.152 9.163,8.205 9.239,8.214 L25.814,10.771 C25.909,10.786 26.001,10.73 26.033,10.639 C26.064,10.548 26.027,10.448 25.943,10.4 L15.76,5.286 C15.712,5.248 15.684,5.19 15.684,5.128 C15.684,5.067 15.712,5.009 15.76,4.972 L17.477,2.971 C17.583,2.92 17.628,2.792 17.577,2.686 C17.525,2.579 17.397,2.534 17.29,2.586 L0.916,0.129 C0.897,0.123 0.877,0.121 0.858,0.121 C0.771,0.121 0.692,0.176 0.665,0.265 Z" id="path-11"></path>
        <path d="M23.969,0.357 L13.443,7.772 C13.386,7.812 13.314,7.823 13.247,7.803 C13.181,7.784 13.127,7.736 13.1,7.671 L12.013,4.914 C11.981,4.836 11.909,4.783 11.825,4.773 C11.742,4.765 11.66,4.802 11.612,4.871 L0.543,19.828 C0.488,19.918 0.502,20.034 0.576,20.109 C0.651,20.184 0.768,20.198 0.858,20.143 L11.284,12.8 C11.342,12.761 11.416,12.751 11.483,12.773 C11.55,12.796 11.604,12.848 11.627,12.914 L12.599,15.771 C12.64,15.844 12.716,15.889 12.799,15.889 C12.883,15.889 12.959,15.844 13,15.771 L24.284,0.672 C24.339,0.581 24.326,0.466 24.25,0.391 C24.206,0.347 24.146,0.323 24.087,0.323 C24.047,0.323 24.006,0.334 23.969,0.357 Z" id="path-13"></path>
        <path d="M18.359,0.651 C18.269,0.73 18.231,0.854 18.262,0.971 L19.079,5.086 C19.101,5.183 19.076,5.286 19.011,5.362 C18.946,5.438 18.849,5.478 18.749,5.471 L0.472,4.685 C0.298,4.65 0.128,4.762 0.093,4.936 C0.057,5.109 0.17,5.279 0.343,5.315 L25.428,14.685 C25.539,14.734 25.668,14.714 25.76,14.635 C25.851,14.556 25.889,14.432 25.857,14.315 L24.856,10.214 C24.827,10.115 24.849,10.008 24.915,9.928 C24.981,9.848 25.082,9.806 25.184,9.815 L43.276,10.586 C43.45,10.621 43.62,10.509 43.655,10.336 C43.691,10.162 43.578,9.993 43.405,9.957 L18.692,0.6 C18.651,0.582 18.609,0.574 18.566,0.574 C18.492,0.574 18.418,0.6 18.359,0.651 Z" id="path-15"></path>
        <path d="M35.014,0.629 L12.532,4 C12.398,3.978 12.269,4.059 12.229,4.188 C12.19,4.319 12.252,4.457 12.375,4.514 L14.72,7.257 C14.778,7.321 14.803,7.408 14.786,7.493 C14.769,7.578 14.713,7.65 14.635,7.685 L0.59,14.829 C0.456,14.881 0.386,15.03 0.432,15.167 C0.478,15.304 0.623,15.381 0.762,15.343 L23.53,11.828 C23.631,11.814 23.716,11.745 23.748,11.648 C23.782,11.552 23.758,11.445 23.687,11.372 L21.213,8.714 C21.154,8.652 21.128,8.567 21.142,8.482 C21.155,8.398 21.208,8.325 21.285,8.286 L35.185,1.143 C35.32,1.09 35.39,0.942 35.344,0.804 C35.306,0.691 35.201,0.619 35.086,0.619 C35.063,0.619 35.039,0.622 35.014,0.629 Z" id="path-17"></path>
        <path d="M9.192,0.071 L1.183,11.428 C1.097,11.48 1.068,11.592 1.119,11.679 C1.17,11.766 1.282,11.794 1.369,11.742 L3.572,11.872 C3.623,11.874 3.671,11.9 3.701,11.941 C3.732,11.983 3.742,12.036 3.729,12.085 L0.869,21.286 C0.854,21.362 0.892,21.44 0.962,21.474 C1.034,21.507 1.119,21.489 1.169,21.429 L9.235,9.815 C9.273,9.762 9.278,9.692 9.248,9.635 C9.217,9.577 9.157,9.542 9.092,9.543 L6.875,9.543 C6.824,9.54 6.776,9.515 6.746,9.474 C6.715,9.432 6.705,9.378 6.718,9.329 L9.492,0.214 C9.508,0.137 9.468,0.06 9.398,0.026 C9.375,0.015 9.349,0.01 9.324,0.01 C9.274,0.01 9.225,0.031 9.192,0.071 Z" id="path-19"></path>
        <path d="M0.242,0.693 C0.167,0.733 0.132,0.82 0.158,0.9 L4.85,14.2 C4.88,14.254 4.937,14.288 4.999,14.288 C5.062,14.288 5.12,14.254 5.15,14.2 L6.465,12.414 C6.498,12.372 6.548,12.348 6.601,12.348 C6.654,12.348 6.705,12.372 6.737,12.414 L12.544,19.971 C12.594,20.039 12.686,20.06 12.761,20.021 C12.836,19.982 12.871,19.895 12.845,19.814 L8.267,6.701 C8.248,6.647 8.204,6.608 8.15,6.593 C8.096,6.58 8.039,6.593 7.996,6.629 L6.566,8.357 C6.533,8.4 6.483,8.424 6.43,8.424 C6.377,8.424 6.327,8.4 6.294,8.357 L0.459,0.742 C0.426,0.698 0.374,0.674 0.321,0.674 C0.294,0.674 0.267,0.68 0.242,0.693 Z" id="path-21"></path>
    </defs>
    <g id="email-editor---signup-form-landing-page" stroke="none" stroke-width="1" fill="none" fill-rule="evenodd">
        <g id="12-post-publish-full-page-takeover" transform="translate(-458.000000, -122.000000)">
            <g id="image" transform="translate(458.000000, 121.000000)">
                <g id="landing_publish_success_icon">
                    <g id="Group-55">
                        <path d="M174.9551,146.8716 C178.5171,146.8716 178.5171,149.4286 182.1061,149.4286 C185.6961,149.4286 185.6671,146.8716 189.2571,146.8716 C192.8471,146.8716 192.8181,149.4286 196.4081,149.4286 C199.9971,149.4286 199.9691,146.8716 203.5581,146.8716 C207.1481,146.8716 207.1191,149.4286 210.7091,149.4286 C214.2991,149.4286 214.2701,146.8716 217.8601,146.8716 C221.4491,146.8716 221.4211,149.4286 225.0101,149.4286" id="Stroke-1" stroke="#A7DFE3" stroke-width="1.429" stroke-linejoin="round"></path>
                        <path d="M294.0152,100.3716 L295.7172,110.6146" id="Stroke-3" stroke="#FBD176" stroke-width="1.429" stroke-linecap="round" stroke-linejoin="round"></path>
                        <path d="M289.7388,106.3428 L299.9928,104.6428" id="Stroke-5" stroke="#FBD176" stroke-width="1.429" stroke-linecap="round" stroke-linejoin="round"></path>
                        <path d="M4.8648,137.5713 L8.1398,147.4143" id="Stroke-7" stroke="#FBD176" stroke-width="1.429" stroke-linecap="round" stroke-linejoin="round"></path>
                        <path d="M1.5753,144.1284 L11.4293,140.8574" id="Stroke-9" stroke="#FBD176" stroke-width="1.429" stroke-linecap="round" stroke-linejoin="round"></path>
                        <path d="M208.106,23.043 L205.203,33" id="Stroke-11" stroke="#FBD176" stroke-width="1.429" stroke-linecap="round" stroke-linejoin="round"></path>
                        <path d="M201.6705,26.5713 L211.6385,29.4713" id="Stroke-13" stroke="#FBD176" stroke-width="1.429" stroke-linecap="round" stroke-linejoin="round"></path>
                        <path d="M57.8692,118.1714 L62.6892,124.8854" id="Stroke-15" stroke="#C6CACE" stroke-width="1.429" stroke-linecap="round" stroke-linejoin="round"></path>
                        <path d="M56.9112,123.9429 L63.6472,119.1139" id="Stroke-17" stroke="#C6CACE" stroke-width="1.429" stroke-linecap="round" stroke-linejoin="round"></path>
                        <polygon id="Stroke-19" stroke="#79CED4" stroke-width="1.429" stroke-linecap="round" stroke-linejoin="round" points="50.7042 181.6572 51.0042 171.8572 42.7522 175.9572"></polygon>
                        <path d="M338.421,61.8999 C341.091,61.8999 343.255,59.7379 343.255,57.0709 C343.255,54.4049 341.091,52.2429 338.421,52.2429 C335.752,52.2429 333.588,54.4049 333.588,57.0709 C333.588,59.7379 335.752,61.8999 338.421,61.8999 Z" id="Stroke-23" stroke="#FABBA8" stroke-width="1.429" stroke-linecap="round" stroke-linejoin="round"></path>
                        <path d="M323.421,175.8999 C326.091,175.8999 328.255,173.7379 328.255,171.0709 C328.255,168.4049 326.091,166.2429 323.421,166.2429 C320.752,166.2429 318.588,168.4049 318.588,171.0709 C318.588,173.7379 320.752,175.8999 323.421,175.8999 Z" id="Stroke-23" stroke="#C7D233" stroke-width="1.429" stroke-linecap="round" stroke-linejoin="round"></path>
                        <polygon id="Stroke-25" stroke="#61A7D5" stroke-width="1.429" stroke-linecap="round" stroke-linejoin="round" points="352.7149 142.2896 363.1199 143.6766 361.7359 154.0706 351.3299 152.6836"></polygon>
                        <polygon id="Stroke-27" stroke="#7FD0D6" stroke-width="1.429" stroke-linecap="round" stroke-linejoin="round" points="86.7281 30.2139 95.1741 26.4009 98.9841 34.8369 90.5381 38.6509"></polygon>
                        <g id="Group-31" transform="translate(110.000000, 80.000000)">
                            <mask id="mask-2" fill="white">
                                <use xlink:href="#path-1"></use>
                            </mask>
                            <g id="Clip-30"></g>
                            <path d="M162.1363,214.9722 L5.6003,214.9722 C3.0153,214.9722 0.9193,212.8762 0.9193,210.2912 L0.9193,5.0232 C0.9193,2.4382 3.0153,0.3422 5.6003,0.3422 L162.1363,0.3422 C164.7213,0.3422 166.8173,2.4382 166.8173,5.0232 L166.8173,210.2912 C166.8173,212.8762 164.7213,214.9722 162.1363,214.9722" id="Fill-29" fill="#FFFFFF" mask="url(#mask-2)"></path>
                        </g>
                        <g id="Group-34" transform="translate(102.000000, 75.000000)">
                            <mask id="mask-4" fill="white">
                                <use xlink:href="#path-3"></use>
                            </mask>
                            <g id="Clip-33"></g>
                            <path d="M170.1363,219.9722 L13.6003,219.9722 C11.0153,219.9722 8.9193,217.8762 8.9193,215.2912 L8.9193,10.0232 C8.9193,7.4382 11.0153,5.3422 13.6003,5.3422 L170.1363,5.3422 C172.7213,5.3422 174.8173,7.4382 174.8173,10.0232 L174.8173,215.2912 C174.8173,217.8762 172.7213,219.9722 170.1363,219.9722 Z" id="Stroke-32" stroke="#61A7D5" stroke-width="3" mask="url(#mask-4)"></path>
                        </g>
                        <mask id="mask-6" fill="white">
                            <use xlink:href="#path-5"></use>
                        </mask>
                        <g id="Clip-36"></g>
                        <polygon id="Fill-35" fill="#FDDED5" mask="url(#mask-6)" points="123.884 171.188 263.861 171.188 263.861 150.451 123.884 150.451"></polygon>
                        <polygon id="Stroke-37" stroke="#61A7D5" stroke-width="2.4" mask="url(#mask-6)" points="123.884 171.188 263.861 171.188 263.861 150.451 123.884 150.451"></polygon>
                        <polygon id="Fill-38" fill="#DEEEF7" mask="url(#mask-6)" points="123.884 143.213 263.861 143.213 263.861 95.622 123.884 95.622"></polygon>
                        <polygon id="Stroke-39" stroke="#61A7D5" stroke-width="2.4" mask="url(#mask-6)" points="123.884 143.213 263.861 143.213 263.861 95.622 123.884 95.622"></polygon>
                        <g id="Group-42" mask="url(#mask-6)">
                            <g transform="translate(177.000000, 101.000000)">
                                <path d="M22.1739,11.5391 C22.1739,17.5041 17.3369,22.3371 11.3749,22.3371 C5.4099,22.3371 0.5729,17.5041 0.5729,11.5391 C0.5729,5.5741 5.4099,0.7411 11.3749,0.7411 C17.3369,0.7411 22.1739,5.5741 22.1739,11.5391" id="Fill-40" stroke="none" fill="#FDDED5" fill-rule="evenodd"></path>
                                <path d="M22.1739,11.5391 C22.1739,17.5041 17.3369,22.3371 11.3749,22.3371 C5.4099,22.3371 0.5729,17.5041 0.5729,11.5391 C0.5729,5.5741 5.4099,0.7411 11.3749,0.7411 C17.3369,0.7411 22.1739,5.5741 22.1739,11.5391" id="Stroke-41" stroke="#61A7D5" stroke-width="2.4" fill="none"></path>
                            </g>
                        </g>
                        <path d="M199.1739,112.5391 C199.1739,118.5041 194.3369,123.3371 188.3749,123.3371 C182.4099,123.3371 177.5729,118.5041 177.5729,112.5391 C177.5729,106.5741 182.4099,101.7411 188.3749,101.7411 C194.3369,101.7411 199.1739,106.5741 199.1739,112.5391 Z" id="Stroke-43" stroke="#61A7D5" stroke-width="2.4" stroke-linecap="round" stroke-linejoin="round" mask="url(#mask-6)"></path>
                        <path d="M212.4615,120.4023 C212.4615,126.3673 207.6255,131.2003 201.6635,131.2003 C195.6975,131.2003 190.8615,126.3673 190.8615,120.4023 C190.8615,114.4373 195.6975,109.6043 201.6635,109.6043 C207.6255,109.6043 212.4615,114.4373 212.4615,120.4023" id="Fill-44" fill="#FEF0D1" mask="url(#mask-6)"></path>
                        <path d="M212.4615,120.4023 C212.4615,126.3673 207.6255,131.2003 201.6635,131.2003 C195.6975,131.2003 190.8615,126.3673 190.8615,120.4023 C190.8615,114.4373 195.6975,109.6043 201.6635,109.6043 C207.6255,109.6043 212.4615,114.4373 212.4615,120.4023 Z" id="Stroke-45" stroke="#61A7D5" stroke-width="2.4" stroke-linecap="round" stroke-linejoin="round" mask="url(#mask-6)"></path>
                        <path d="M196.8848,127.2944 C196.8848,133.2594 192.0488,138.0924 186.0868,138.0924 C180.1208,138.0924 175.2848,133.2594 175.2848,127.2944 C175.2848,121.3294 180.1208,116.4954 186.0868,116.4954 C192.0488,116.4954 196.8848,121.3294 196.8848,127.2944" id="Fill-46" fill="#DAF1F3" mask="url(#mask-6)"></path>
                        <path d="M196.8848,127.2944 C196.8848,133.2594 192.0488,138.0924 186.0868,138.0924 C180.1208,138.0924 175.2848,133.2594 175.2848,127.2944 C175.2848,121.3294 180.1208,116.4954 186.0868,116.4954 C192.0488,116.4954 196.8848,121.3294 196.8848,127.2944 Z" id="Stroke-47" stroke="#61A7D5" stroke-width="2.4" stroke-linecap="round" stroke-linejoin="round" mask="url(#mask-6)"></path>
                        <polygon id="Stroke-48" stroke="#61A7D5" stroke-width="2.4" mask="url(#mask-6)" points="123.485 235.094 263.461 235.094 263.461 178.166 123.485 178.166"></polygon>
                        <polygon id="Fill-50" fill="#FDE4AF" mask="url(#mask-6)" points="146.772 190.264 213.555 190.264 213.555 185.744 146.772 185.744"></polygon>
                        <polygon id="Fill-51" fill="#E8E7E2" mask="url(#mask-6)" points="146.772 201.601 213.555 201.601 213.555 197.081 146.772 197.081"></polygon>
                        <polygon id="Fill-52" fill="#FDE4AF" mask="url(#mask-6)" points="146.772 201.601 184.162 201.601 184.162 197.081 146.772 197.081"></polygon>
                        <polygon id="Fill-53" fill="#E8E7E2" mask="url(#mask-6)" points="146.772 213.389 213.555 213.389 213.555 208.869 146.772 208.869"></polygon>
                        <polygon id="Fill-54" fill="#E8E7E2" mask="url(#mask-6)" points="146.772 224.534 213.555 224.534 213.555 220.015 146.772 220.015"></polygon>
                    </g>
                    <g id="Group-58" transform="translate(49.000000, 48.000000)">
                        <mask id="mask-8" fill="white">
                            <use xlink:href="#path-7"></use>
                        </mask>
                        <g id="Clip-57"></g>
                        <polygon id="Fill-56" fill="#FAD58E" mask="url(#mask-8)" points="-4.932 36.402 34.254 36.402 34.254 -4.374 -4.932 -4.374"></polygon>
                    </g>
                    <g id="Group-61" transform="translate(14.000000, 193.000000)">
                        <mask id="mask-10" fill="white">
                            <use xlink:href="#path-9"></use>
                        </mask>
                        <g id="Clip-60"></g>
                        <polygon id="Fill-59" fill="#FAD58E" mask="url(#mask-10)" points="-4.167 18.4 47.914 18.4 47.914 -4.782 -4.167 -4.782"></polygon>
                    </g>
                    <g id="Group-64" transform="translate(21.000000, 128.000000)">
                        <mask id="mask-12" fill="white">
                            <use xlink:href="#path-11"></use>
                        </mask>
                        <g id="Clip-63"></g>
                        <polygon id="Fill-62" fill="#FAD58E" mask="url(#mask-12)" points="-4.343 15.773 31.044 15.773 31.044 -4.88 -4.343 -4.88"></polygon>
                    </g>
                    <g id="Group-67" transform="translate(293.000000, 43.000000)">
                        <mask id="mask-14" fill="white">
                            <use xlink:href="#path-13"></use>
                        </mask>
                        <g id="Clip-66"></g>
                        <polygon id="Fill-65" fill="#FAD58E" mask="url(#mask-14)" points="-4.491 25.176 29.317 25.176 29.317 -4.677 -4.491 -4.677"></polygon>
                    </g>
                    <g id="Group-70" transform="translate(319.000000, 191.000000)">
                        <mask id="mask-16" fill="white">
                            <use xlink:href="#path-15"></use>
                        </mask>
                        <g id="Clip-69"></g>
                        <polygon id="Fill-68" fill="#FAD58E" mask="url(#mask-16)" points="-4.914 19.712 48.662 19.712 48.662 -4.426 -4.914 -4.426"></polygon>
                    </g>
                    <g id="Group-73" transform="translate(323.000000, 115.000000)">
                        <mask id="mask-18" fill="white">
                            <use xlink:href="#path-17"></use>
                        </mask>
                        <g id="Clip-72"></g>
                        <polygon id="Fill-71" fill="#FAD58E" mask="url(#mask-18)" points="-4.582 20.353 40.358 20.353 40.358 -4.381 -4.582 -4.381"></polygon>
                    </g>
                    <g id="Group-76" transform="translate(238.000000, 1.000000)">
                        <mask id="mask-20" fill="white">
                            <use xlink:href="#path-19"></use>
                        </mask>
                        <g id="Clip-75"></g>
                        <polygon id="Fill-74" fill="#FAD58E" mask="url(#mask-20)" points="-4.135 26.49 14.495 26.49 14.495 -4.99 -4.135 -4.99"></polygon>
                    </g>
                    <g id="Group-79" transform="translate(126.000000, 2.000000)">
                        <mask id="mask-22" fill="white">
                            <use xlink:href="#path-21"></use>
                        </mask>
                        <g id="Clip-78"></g>
                        <polygon id="Fill-77" fill="#FAD58E" mask="url(#mask-22)" points="-4.851 25.041 17.853 25.041 17.853 -4.326 -4.851 -4.326"></polygon>
                    </g>
                    <path d="M54.1285,227.3286 L333.1075,227.3286" id="Stroke-80" stroke="#61A7D5" stroke-width="2.757" stroke-linecap="round" stroke-linejoin="round"></path>
                    <path d="M45.5616,227.3286 L31.3606,227.3286" id="Stroke-81" stroke="#61A7D5" stroke-width="2.757" stroke-linecap="round" stroke-linejoin="round"></path>
                    <path d="M352.7432,227.3286 L343.4612,227.3286" id="Stroke-82" stroke="#61A7D5" stroke-width="2.757" stroke-linecap="round" stroke-linejoin="round"></path>
                </g>
            </g>
        </g>
    </g>
</svg>